<mxfile host="app.diagrams.net" agent="Mozilla/5.0 (Macintosh; Intel Mac OS X 10_15_7) AppleWebKit/537.36 (KHTML, like Gecko) Chrome/136.0.0.0 Safari/537.36" version="27.0.6">
  <diagram name="第 1 页" id="zYUPls5FNB8WJNyzPb2g">
    <mxGraphModel dx="1042" dy="792" grid="1" gridSize="10" guides="1" tooltips="1" connect="1" arrows="1" fold="1" page="1" pageScale="1" pageWidth="827" pageHeight="1169" math="0" shadow="0">
      <root>
        <mxCell id="0" />
        <mxCell id="1" parent="0" />
        <mxCell id="44rDwgQbfzLAyZbZTJIp-1" value="" style="rounded=1;whiteSpace=wrap;html=1;" vertex="1" parent="1">
          <mxGeometry x="610" y="140" width="500" height="420" as="geometry" />
        </mxCell>
        <mxCell id="44rDwgQbfzLAyZbZTJIp-2" value="" style="rounded=1;whiteSpace=wrap;html=1;" vertex="1" parent="1">
          <mxGeometry x="80" y="160" width="430" height="400" as="geometry" />
        </mxCell>
        <mxCell id="44rDwgQbfzLAyZbZTJIp-3" value="" style="edgeStyle=orthogonalEdgeStyle;rounded=0;orthogonalLoop=1;jettySize=auto;html=1;" edge="1" parent="1" source="44rDwgQbfzLAyZbZTJIp-5" target="44rDwgQbfzLAyZbZTJIp-8">
          <mxGeometry relative="1" as="geometry" />
        </mxCell>
        <mxCell id="44rDwgQbfzLAyZbZTJIp-4" value="trace/metrics" style="edgeLabel;html=1;align=center;verticalAlign=middle;resizable=0;points=[];" vertex="1" connectable="0" parent="44rDwgQbfzLAyZbZTJIp-3">
          <mxGeometry x="-0.175" relative="1" as="geometry">
            <mxPoint as="offset" />
          </mxGeometry>
        </mxCell>
        <mxCell id="44rDwgQbfzLAyZbZTJIp-5" value="service" style="rounded=1;whiteSpace=wrap;html=1;" vertex="1" parent="1">
          <mxGeometry x="110" y="250" width="120" height="60" as="geometry" />
        </mxCell>
        <mxCell id="44rDwgQbfzLAyZbZTJIp-6" value="" style="edgeStyle=orthogonalEdgeStyle;rounded=0;orthogonalLoop=1;jettySize=auto;html=1;" edge="1" parent="1" source="44rDwgQbfzLAyZbZTJIp-8" target="44rDwgQbfzLAyZbZTJIp-13">
          <mxGeometry relative="1" as="geometry" />
        </mxCell>
        <mxCell id="44rDwgQbfzLAyZbZTJIp-7" value="otlp" style="edgeLabel;html=1;align=center;verticalAlign=middle;resizable=0;points=[];" vertex="1" connectable="0" parent="44rDwgQbfzLAyZbZTJIp-6">
          <mxGeometry x="-0.3488" y="1" relative="1" as="geometry">
            <mxPoint as="offset" />
          </mxGeometry>
        </mxCell>
        <mxCell id="44rDwgQbfzLAyZbZTJIp-20" value="" style="edgeStyle=orthogonalEdgeStyle;rounded=0;orthogonalLoop=1;jettySize=auto;html=1;" edge="1" parent="1" source="44rDwgQbfzLAyZbZTJIp-8" target="44rDwgQbfzLAyZbZTJIp-19">
          <mxGeometry relative="1" as="geometry">
            <Array as="points">
              <mxPoint x="380" y="460" />
            </Array>
          </mxGeometry>
        </mxCell>
        <mxCell id="44rDwgQbfzLAyZbZTJIp-21" value="trace" style="edgeLabel;html=1;align=center;verticalAlign=middle;resizable=0;points=[];" vertex="1" connectable="0" parent="44rDwgQbfzLAyZbZTJIp-20">
          <mxGeometry x="0.08" y="2" relative="1" as="geometry">
            <mxPoint as="offset" />
          </mxGeometry>
        </mxCell>
        <mxCell id="44rDwgQbfzLAyZbZTJIp-8" value="otel-collector-agent" style="rounded=1;whiteSpace=wrap;html=1;" vertex="1" parent="1">
          <mxGeometry x="324" y="250" width="120" height="60" as="geometry" />
        </mxCell>
        <mxCell id="44rDwgQbfzLAyZbZTJIp-9" style="edgeStyle=orthogonalEdgeStyle;rounded=0;orthogonalLoop=1;jettySize=auto;html=1;entryX=0;entryY=0.5;entryDx=0;entryDy=0;" edge="1" parent="1" source="44rDwgQbfzLAyZbZTJIp-13" target="44rDwgQbfzLAyZbZTJIp-16">
          <mxGeometry relative="1" as="geometry" />
        </mxCell>
        <mxCell id="44rDwgQbfzLAyZbZTJIp-10" value="metrics" style="edgeLabel;html=1;align=center;verticalAlign=middle;resizable=0;points=[];" vertex="1" connectable="0" parent="44rDwgQbfzLAyZbZTJIp-9">
          <mxGeometry x="0.0143" y="-1" relative="1" as="geometry">
            <mxPoint as="offset" />
          </mxGeometry>
        </mxCell>
        <mxCell id="44rDwgQbfzLAyZbZTJIp-11" style="edgeStyle=orthogonalEdgeStyle;rounded=0;orthogonalLoop=1;jettySize=auto;html=1;entryX=0;entryY=0.5;entryDx=0;entryDy=0;" edge="1" parent="1" source="44rDwgQbfzLAyZbZTJIp-13" target="44rDwgQbfzLAyZbZTJIp-17">
          <mxGeometry relative="1" as="geometry" />
        </mxCell>
        <mxCell id="44rDwgQbfzLAyZbZTJIp-12" value="trace" style="edgeLabel;html=1;align=center;verticalAlign=middle;resizable=0;points=[];" vertex="1" connectable="0" parent="44rDwgQbfzLAyZbZTJIp-11">
          <mxGeometry x="-0.1" y="-3" relative="1" as="geometry">
            <mxPoint as="offset" />
          </mxGeometry>
        </mxCell>
        <mxCell id="44rDwgQbfzLAyZbZTJIp-13" value="otel-collector-gateway" style="rounded=1;whiteSpace=wrap;html=1;" vertex="1" parent="1">
          <mxGeometry x="650" y="250" width="140" height="60" as="geometry" />
        </mxCell>
        <mxCell id="44rDwgQbfzLAyZbZTJIp-14" value="sampling+span metrics" style="text;html=1;align=center;verticalAlign=middle;whiteSpace=wrap;rounded=0;" vertex="1" parent="1">
          <mxGeometry x="324" y="220" width="140" height="30" as="geometry" />
        </mxCell>
        <mxCell id="44rDwgQbfzLAyZbZTJIp-15" value="edge cluster" style="text;html=1;align=center;verticalAlign=middle;whiteSpace=wrap;rounded=0;" vertex="1" parent="1">
          <mxGeometry x="100" y="170" width="90" height="30" as="geometry" />
        </mxCell>
        <mxCell id="44rDwgQbfzLAyZbZTJIp-16" value="victoria metrics(TSDB)" style="rounded=1;whiteSpace=wrap;html=1;" vertex="1" parent="1">
          <mxGeometry x="850" y="170" width="120" height="60" as="geometry" />
        </mxCell>
        <mxCell id="44rDwgQbfzLAyZbZTJIp-17" value="tempo(trace storage)" style="rounded=1;whiteSpace=wrap;html=1;" vertex="1" parent="1">
          <mxGeometry x="850" y="320" width="120" height="60" as="geometry" />
        </mxCell>
        <mxCell id="44rDwgQbfzLAyZbZTJIp-18" value="center cluster" style="text;html=1;align=center;verticalAlign=middle;whiteSpace=wrap;rounded=0;" vertex="1" parent="1">
          <mxGeometry x="650" y="150" width="100" height="30" as="geometry" />
        </mxCell>
        <mxCell id="44rDwgQbfzLAyZbZTJIp-23" value="" style="edgeStyle=orthogonalEdgeStyle;rounded=0;orthogonalLoop=1;jettySize=auto;html=1;" edge="1" parent="1" source="44rDwgQbfzLAyZbZTJIp-19" target="44rDwgQbfzLAyZbZTJIp-22">
          <mxGeometry relative="1" as="geometry" />
        </mxCell>
        <mxCell id="44rDwgQbfzLAyZbZTJIp-25" value="metrics" style="edgeLabel;html=1;align=center;verticalAlign=middle;resizable=0;points=[];" vertex="1" connectable="0" parent="44rDwgQbfzLAyZbZTJIp-23">
          <mxGeometry x="0.1429" y="-4" relative="1" as="geometry">
            <mxPoint as="offset" />
          </mxGeometry>
        </mxCell>
        <mxCell id="44rDwgQbfzLAyZbZTJIp-19" value="kafka" style="rounded=1;whiteSpace=wrap;html=1;fillColor=#dae8fc;strokeColor=#6c8ebf;" vertex="1" parent="1">
          <mxGeometry x="660" y="430" width="120" height="60" as="geometry" />
        </mxCell>
        <mxCell id="44rDwgQbfzLAyZbZTJIp-24" style="edgeStyle=orthogonalEdgeStyle;rounded=0;orthogonalLoop=1;jettySize=auto;html=1;entryX=1;entryY=0.5;entryDx=0;entryDy=0;" edge="1" parent="1" source="44rDwgQbfzLAyZbZTJIp-22" target="44rDwgQbfzLAyZbZTJIp-16">
          <mxGeometry relative="1" as="geometry">
            <Array as="points">
              <mxPoint x="1020" y="460" />
              <mxPoint x="1020" y="200" />
            </Array>
          </mxGeometry>
        </mxCell>
        <mxCell id="44rDwgQbfzLAyZbZTJIp-26" value="metrics" style="edgeLabel;html=1;align=center;verticalAlign=middle;resizable=0;points=[];" vertex="1" connectable="0" parent="44rDwgQbfzLAyZbZTJIp-24">
          <mxGeometry x="-0.1722" relative="1" as="geometry">
            <mxPoint as="offset" />
          </mxGeometry>
        </mxCell>
        <mxCell id="44rDwgQbfzLAyZbZTJIp-22" value="flink" style="rounded=1;whiteSpace=wrap;html=1;fillColor=#dae8fc;strokeColor=#6c8ebf;" vertex="1" parent="1">
          <mxGeometry x="850" y="430" width="120" height="60" as="geometry" />
        </mxCell>
      </root>
    </mxGraphModel>
  </diagram>
</mxfile>
